<svg xmlns="http://www.w3.org/2000/svg" aria-hidden="true" style="width: 0; height: 0; position: absolute;"><symbol id="edit" viewBox="2.5 0 19 24" preserveAspectRatio="xMidYMid slice"><path d="M14.5 5.5 3 17v4h4L18.5 9.5zM21.172 2.828a2.83 2.83 0 0 0-4 0L16 4l4 4 1.172-1.172a2.83 2.83 0 0 0 0-4"></path></symbol><symbol id="plus" viewBox="0 0 16 16" preserveAspectRatio="xMidYMid slice"><g><path d="M7.98 1.45c1.29 0 2.55.38 3.63 1.1 1.07.72 1.91 1.74 2.4 2.93.5 1.19.63 2.51.38 3.77a6.65 6.65 0 0 1-1.79 3.35c-.92.91-2.08 1.53-3.35 1.79-1.26.25-2.58.12-3.77-.38a6.55 6.55 0 0 1-2.93-2.4 6.54 6.54 0 0 1-1.1-3.63c0-1.73.69-3.39 1.92-4.61a6.5 6.5 0 0 1 4.61-1.92m0-1.45A7.958 7.958 0 0 0 .63 4.95C.03 6.41-.13 8.01.19 9.56a8 8 0 0 0 2.19 4.08 7.96 7.96 0 0 0 4.09 2.17c1.54.31 3.15.15 4.6-.46 1.46-.6 2.71-1.63 3.58-2.94A7.94 7.94 0 0 0 16 7.98c0-1.05-.21-2.09-.62-3.06-.4-.97-.99-1.86-1.73-2.6A8 8 0 0 0 11.04.59c-.97-.4-2.01-.6-3.06-.59"></path><path d="M11.7 7.38H8.49V4.16H7.41v3.22H4.19v1.08h3.22v3.21h1.08V8.46h3.21z"></path></g></symbol><symbol id="rocket" viewBox="0 0 22 36" preserveAspectRatio="xMidYMid slice"><g><path fill="#4EA8DE" d="M11.02 2.93c3.12 3.97 4.79 8.86 4.73 13.88v1.2l1.03.63a6.4 6.4 0 0 1 2.8 3.52c-.41-.3-.85-.58-1.3-.84l-2.75-1.54-.5 3.12c-.04.27-.1.54-.17.81h-7.7c-.12-.35-.21-.7-.3-1.07l-.62-2.82-2.54 1.41c-.42.24-.83.5-1.22.78a6.68 6.68 0 0 1 2.76-3.52l.98-.63v-1.11c.02-5 1.7-9.86 4.8-13.82m0-2.93c-.16 0-.31.05-.43.16l-.07.05C6.39 4.76 4.1 10.64 4.08 16.74a8.8 8.8 0 0 0-3.67 4.77 8.67 8.67 0 0 0 .3 5.98 9.74 9.74 0 0 1 4.07-4.4q.27 1.155.72 2.25c.03.14.12.27.23.36.12.08.26.13.41.14h9.94c.2 0 .4-.2.5-.49.29-.7.49-1.42.6-2.17a9.7 9.7 0 0 1 4.07 4.4c.86-1.88.99-4.01.37-5.99a8.56 8.56 0 0 0-3.72-4.75c.07-6.14-2.21-12.07-6.39-16.63a.9.9 0 0 0-.22-.16.65.65 0 0 0-.27-.05"></path><path fill="#4EA8DE" d="M11.02 16.15c-.55 0-1.09-.16-1.55-.46s-.81-.72-1.03-1.22c-.21-.5-.26-1.05-.16-1.59.11-.53.37-1.02.76-1.4s.88-.65 1.42-.76c.54-.1 1.1-.05 1.61.15.51.21.94.55 1.25 1s.48.98.48 1.52c.01.35-.05.7-.18 1.03s-.32.63-.57.88c-.24.25-.54.46-.86.6-.33.14-.68.22-1.04.23h-.13z"></path><path fill="#5E60CE" d="M14.89 27.59c-.18 0-.36.02-.52.09-.17.06-.32.16-.45.28s-.24.27-.31.43a1.3 1.3 0 0 0-.11.51v4.16a1.38 1.38 0 0 0 1.39 1.37 1.38 1.38 0 0 0 1.39-1.37v-4.1c.01-.18-.02-.35-.09-.52-.06-.16-.16-.31-.28-.44a1.2 1.2 0 0 0-.44-.3 1.3 1.3 0 0 0-.51-.11zM7.16 27.59a1.355 1.355 0 0 0-1 .36c-.14.12-.24.27-.32.43-.07.17-.11.34-.12.52v4.16a1.38 1.38 0 0 0 1.39 1.37c.37 0 .73-.14.99-.4s.4-.61.4-.97v-4.1c.01-.18-.02-.35-.09-.52a1.2 1.2 0 0 0-.28-.44c-.12-.13-.27-.23-.43-.3-.17-.07-.34-.11-.52-.11zM10.92 27.59c-.18 0-.36.03-.53.09-.16.07-.32.16-.44.28a1.3 1.3 0 0 0-.42.94v5.73c0 .37.14.71.4.97s.62.4.99.4c.36 0 .72-.14.98-.4s.41-.6.41-.97v-5.64c0-.17-.03-.35-.09-.51-.07-.17-.16-.32-.29-.44-.12-.13-.27-.23-.43-.3a1.3 1.3 0 0 0-.52-.11z"></path></g></symbol><symbol id="trash" viewBox="6 0 12.533 24" preserveAspectRatio="xMidYMid slice"><g><path d="M12.87 9.98h1.33v5.52h-1.33zM10.13 9.98h1.33v5.52h-1.33z"></path><path d="M18.47 7.16a.67.67 0 0 0-.13-.38.7.7 0 0 0-.33-.22.6.6 0 0 0-.18-.05h-3.55c-.13-.44-.4-.82-.77-1.09-.37-.28-.82-.42-1.28-.42s-.9.14-1.27.42c-.37.27-.64.65-.78 1.09H6.63c-.05 0-.11.01-.17.03h-.01c-.14.04-.26.13-.34.25s-.12.26-.11.41c.01.14.07.28.16.39.1.1.23.17.38.2l.71 9.74c.01.38.16.74.43 1.01.26.27.62.43 1 .46h7.1c.38-.02.74-.19 1.01-.46.26-.27.41-.63.42-1.01l.71-9.74a.63.63 0 0 0 .4-.21q.15-.18.15-.42m-6.24-.95c.13 0 .26.03.38.08s.22.13.31.22h-1.38c.09-.09.2-.17.31-.22.12-.05.25-.08.38-.08m3.55 11.58h-7.1c-.08 0-.21-.14-.23-.35l-.7-9.63h8.96l-.7 9.63c-.02.21-.14.35-.23.35"></path></g></symbol></svg>